<svg width="237" height="41" viewBox="0 0 237 41" fill="none" xmlns="http://www.w3.org/2000/svg">
<path fill-rule="evenodd" clip-rule="evenodd" d="M19.1875 32.1061C18.6477 32.1211 18.1228 32.076 17.5829 32.0009C16.1283 31.7906 14.7636 31.3249 13.5039 30.5587C10.7146 28.8761 8.93001 26.4274 8.19519 23.2125C8.03023 22.4914 7.95525 21.7552 7.95525 21.0191C7.94025 18.0746 8.90002 15.4907 10.8495 13.2973C12.5441 11.4044 14.6436 10.2477 17.118 9.76693C17.8079 9.63172 18.4977 9.55661 19.1875 9.58665C19.1875 10.7134 19.1875 11.8251 19.1875 12.9518C19.1575 12.9668 19.1275 12.9818 19.0975 13.0119C18.6926 13.2973 18.2877 13.5978 17.8978 13.9133C17.013 14.6344 16.1733 15.4005 15.4684 16.3169C14.5237 17.5338 13.8938 18.8708 13.8038 20.4482C13.7588 21.1994 13.8488 21.9355 14.0888 22.6416C14.6736 24.3993 16.4882 26.2171 19.0376 26.2621C19.1875 26.2621 19.2175 26.2922 19.2175 26.4574C19.2025 27.2236 19.2025 28.7559 19.2025 28.7559C19.2025 28.7559 19.2025 28.8461 19.2025 28.8911C19.1875 29.9578 19.1875 31.0244 19.1875 32.1061Z" fill="#0099FF"/>
<path fill-rule="evenodd" clip-rule="evenodd" d="M19.1879 12.9364C19.1879 12.9364 19.1879 10.698 19.1879 9.57127C19.8027 9.55625 20.4026 9.61634 21.0024 9.70648C22.1271 9.88675 23.2069 10.2173 24.2266 10.7431C26.3411 11.8397 28.0057 13.4021 29.1304 15.5354C29.7753 16.7673 30.1952 18.0743 30.3601 19.4413C30.5551 21.0488 30.4051 22.6412 29.9252 24.1886C29.3704 25.9463 28.4406 27.4937 27.1359 28.8007C25.5463 30.3781 23.6568 31.3996 21.4673 31.8653C20.7175 32.0156 19.9527 32.1057 19.1879 32.0907C19.1879 31.009 19.1879 29.9424 19.1879 28.8607C19.1879 28.8157 19.1879 28.7406 19.1879 28.7406C19.1879 28.7406 19.2328 28.7105 19.2478 28.6955C20.4176 27.8692 21.5273 26.9679 22.4871 25.8862C23.1169 25.1801 23.6568 24.429 24.0317 23.5576C24.5565 22.3258 24.7665 21.0638 24.4966 19.7268C24.0167 17.2931 21.8422 15.4753 19.3378 15.4152C19.1729 15.4152 19.1879 15.28 19.1879 15.28V12.9364Z" fill="#0561E2"/>
<path d="M44.922 24.3402C44.922 24.9608 44.8202 25.5519 44.6312 26.1282C44.4421 26.7045 44.1368 27.2069 43.7587 27.6501C43.366 28.0934 42.8862 28.4333 42.3045 28.6993C41.7228 28.9505 41.0393 29.0835 40.2832 29.0835C39.0616 29.0835 38.0583 28.7879 37.2875 28.2117C36.5023 27.6354 35.9933 26.7192 35.7461 25.4632L38.32 24.8426C38.4073 25.3598 38.6108 25.7735 38.9453 26.0838C39.2652 26.3942 39.6724 26.5419 40.1523 26.5419C40.9376 26.5419 41.4756 26.2759 41.7519 25.7292C42.0282 25.1973 42.1736 24.4437 42.1736 23.498V12.9919H44.922V24.3402Z" fill="white"/>
<path d="M60.074 22.9217C60.074 23.8674 59.914 24.7244 59.5941 25.478C59.2741 26.2464 58.8379 26.8818 58.2853 27.4137C57.7327 27.9457 57.0783 28.3594 56.3221 28.6402C55.566 28.9357 54.7371 29.0687 53.85 29.0687C52.963 29.0687 52.1341 28.9209 51.3924 28.6402C50.6363 28.3594 49.9819 27.9457 49.4147 27.4137C48.8476 26.8818 48.4113 26.2316 48.106 25.478C47.786 24.7244 47.6406 23.8674 47.6406 22.9217V12.9919H50.389V22.833C50.389 23.2172 50.4472 23.6162 50.5635 24.0447C50.6799 24.4584 50.8689 24.8574 51.1452 25.212C51.407 25.5667 51.7705 25.8622 52.2213 26.0838C52.6576 26.3203 53.2102 26.4237 53.8646 26.4237C54.5189 26.4237 55.0715 26.3055 55.5078 26.0838C55.944 25.8622 56.3076 25.5667 56.5839 25.212C56.8456 24.8574 57.0492 24.4732 57.1656 24.0447C57.2819 23.6162 57.3401 23.2172 57.3401 22.833V12.9919H60.0885V22.9217H60.074Z" fill="white"/>
<path d="M70.4868 16.3611C70.196 15.9326 69.8034 15.6223 69.3235 15.4154C68.8291 15.2086 68.3201 15.1199 67.782 15.1199C67.4621 15.1199 67.1567 15.1642 66.8514 15.2381C66.546 15.312 66.2842 15.4302 66.0516 15.5928C65.8043 15.7553 65.6153 15.9622 65.4699 16.2281C65.3245 16.4941 65.2518 16.7896 65.2518 17.1443C65.2518 17.6762 65.4263 18.09 65.8043 18.3559C66.1679 18.6367 66.6187 18.8879 67.1567 19.08C67.6948 19.2869 68.2765 19.4937 68.9163 19.6858C69.5562 19.8779 70.1378 20.1439 70.6904 20.4837C71.2285 20.8236 71.6793 21.2817 72.0428 21.8284C72.4064 22.3899 72.5954 23.1435 72.5954 24.0596C72.5954 24.9019 72.45 25.6407 72.1446 26.2613C71.8392 26.8967 71.4321 27.4139 70.9086 27.8276C70.385 28.2414 69.7888 28.5517 69.1054 28.7585C68.4219 28.9654 67.6948 29.0688 66.9532 29.0688C65.9934 29.0688 65.0627 28.9063 64.1902 28.5812C63.3031 28.2561 62.5324 27.7094 61.8926 26.941L63.9721 24.9019C64.3065 25.4191 64.7428 25.818 65.2954 26.1136C65.848 26.4091 66.4151 26.5421 67.0259 26.5421C67.3458 26.5421 67.6657 26.4977 67.9856 26.4091C68.3056 26.3204 68.5964 26.1874 68.8581 26.0101C69.1199 25.8328 69.3235 25.6112 69.4834 25.3304C69.6434 25.0644 69.7307 24.7394 69.7307 24.3847C69.7307 23.8084 69.5416 23.3651 69.1781 23.0548C68.8145 22.7445 68.3637 22.4786 67.8257 22.2717C67.2876 22.0648 66.6914 21.8579 66.0516 21.6659C65.4117 21.4738 64.8155 21.2078 64.292 20.8827C63.7539 20.5576 63.3031 20.1143 62.9396 19.5528C62.576 18.9913 62.387 18.2525 62.387 17.3216C62.387 16.5089 62.547 15.8144 62.8814 15.2233C63.2013 14.6323 63.6376 14.1447 64.1757 13.7457C64.6992 13.3615 65.3099 13.066 65.9934 12.8739C66.6769 12.6818 67.3749 12.5931 68.0874 12.5931C68.9018 12.5931 69.687 12.7261 70.4578 12.9625C71.2139 13.2137 71.9119 13.6275 72.5227 14.2038L70.4868 16.3611Z" fill="white"/>
<path d="M74.8934 12.9919H80.0849C80.8265 12.9919 81.5391 13.0658 82.2371 13.2136C82.9206 13.3614 83.5313 13.6126 84.0548 13.9524C84.5784 14.307 85.0001 14.7651 85.3054 15.3414C85.6108 15.9325 85.7708 16.6565 85.7708 17.5283C85.7708 18.5183 85.5963 19.3163 85.2618 19.9221C84.9274 20.5279 84.4766 21.0008 83.9094 21.3258C83.3423 21.6509 82.6879 21.8873 81.9317 22.0056C81.1755 22.1238 80.4048 22.1829 79.5905 22.1829H77.6273V28.6845H74.8789V12.9919H74.8934ZM79.2996 19.8039C79.6923 19.8039 80.0994 19.7891 80.5212 19.7595C80.9429 19.73 81.3355 19.6413 81.6845 19.4936C82.0335 19.3458 82.3244 19.1242 82.557 18.8286C82.7752 18.5331 82.8915 18.1194 82.8915 17.5874C82.8915 17.0998 82.7897 16.7156 82.5861 16.4201C82.3825 16.1245 82.1208 15.9029 81.8008 15.7551C81.4809 15.5926 81.1174 15.5039 80.7247 15.4596C80.3321 15.4153 79.954 15.3857 79.5905 15.3857H77.6273V19.8039H79.2996Z" fill="white"/>
<path d="M91.0484 12.9919H93.4188L100.079 28.6845H96.9379L95.4983 25.0938H88.809L87.413 28.6845H84.3301L91.0484 12.9919ZM94.5385 22.7L92.1536 16.3166L89.7397 22.7H94.5385Z" fill="white"/>
<path d="M103.423 21.976L97.6211 12.9919H101.068L104.863 19.2424L108.702 12.9919H111.974L106.172 21.976V28.6993H103.423V21.976Z" fill="white"/>
<path d="M119.808 29.9364V13.9227H121.776V19.867C122.452 18.8516 123.616 18.2805 124.991 18.2805C127.424 18.2805 129.264 20.0997 129.264 22.5536V29.9364H127.276V23.1882C127.276 21.3055 126.133 20.1844 124.547 20.1844C122.96 20.1844 121.776 21.3267 121.776 23.1882V29.9364H119.808ZM131.851 34.5903C131.344 34.5903 130.815 34.5268 130.371 34.3365V32.5807C130.667 32.6441 131.175 32.7287 131.64 32.7287C132.973 32.7287 133.523 32.1999 134.136 30.7826L134.475 29.9576L129.948 18.5343H132.084L135.553 27.4402L139.002 18.5343H141.18L136.04 31.2903C135.3 33.1307 134.073 34.5903 131.851 34.5903ZM142.296 34.1672V18.5343H144.221V20.142C145.109 18.9786 146.506 18.2805 148.219 18.2805C151.456 18.2805 153.867 20.8401 153.867 24.2459C153.867 27.6306 151.456 30.1903 148.198 30.1903C146.569 30.1903 145.131 29.5345 144.263 28.3498V34.1672H142.296ZM148.05 28.2864C150.208 28.2864 151.773 26.5517 151.773 24.2459C151.773 21.919 150.186 20.1844 148.05 20.1844C145.913 20.1844 144.263 21.9401 144.263 24.2459C144.263 26.5517 145.913 28.2864 148.05 28.2864ZM161.059 30.1903C157.78 30.1903 155.347 27.6306 155.347 24.2036C155.347 20.7767 157.737 18.2805 160.889 18.2805C164.253 18.2805 166.241 20.9247 166.241 23.7594C166.241 24.0767 166.199 24.4786 166.136 24.8171H157.42C157.526 27.0171 159.155 28.3922 161.08 28.3922C162.603 28.3922 163.618 27.6094 164.274 26.5094L165.924 27.3556C165.226 28.9422 163.385 30.1903 161.059 30.1903ZM160.889 20.0363C159.176 20.0363 157.737 21.1998 157.462 23.1248H164.105C164.041 21.3055 162.645 20.0363 160.889 20.0363ZM168.172 29.9364V18.5343H170.097V19.8882C170.689 18.894 171.726 18.4074 173.122 18.4074H173.82V20.269H172.826C171.218 20.269 170.139 21.3267 170.139 23.1459V29.9364H168.172ZM179.016 30.1903C176.731 30.1903 174.933 28.9845 174.235 27.0594L175.8 26.2979C176.456 27.6729 177.641 28.4979 179.016 28.4979C180.243 28.4979 181.173 27.8633 181.173 26.8902C181.173 25.896 180.158 25.5152 179.46 25.3248L177.746 24.8383C175.694 24.2671 174.785 23.1248 174.785 21.644C174.785 19.6132 176.498 18.2805 178.741 18.2805C180.729 18.2805 182.464 19.3593 183.141 21.1786L181.533 21.919C181.025 20.7344 179.925 19.994 178.677 19.994C177.535 19.994 176.794 20.6286 176.794 21.5171C176.794 22.5113 177.683 22.8498 178.36 23.0402L180.221 23.5902C182.062 24.119 183.162 25.3037 183.162 26.8691C183.162 28.8152 181.448 30.1903 179.016 30.1903ZM187.519 29.9364L183.606 18.5343H185.784L188.513 26.8902L191.179 18.5343H193.04L195.706 26.8902L198.456 18.5343H200.613L196.7 29.9364H194.817L192.109 21.3478L189.402 29.9364H187.519ZM201.738 16.7151V14.1766H203.706V16.7151H201.738ZM201.738 29.9364V18.5343H203.706V29.9364H201.738ZM210.756 30.0633C208.535 30.0633 207.287 28.7518 207.287 26.4248V20.4171H205.214V18.5343H205.637C206.652 18.5343 207.287 17.8786 207.287 16.842V15.9112H209.254V18.5343H211.814V20.4171H209.254V26.3614C209.254 27.5248 209.762 28.2652 211.158 28.2652C211.37 28.2652 211.687 28.2441 211.941 28.2018V29.9364C211.581 30.021 211.074 30.0633 210.756 30.0633ZM218.855 30.1903C215.491 30.1903 213.101 27.6094 213.101 24.2248C213.101 20.819 215.491 18.2805 218.855 18.2805C221.076 18.2805 223.022 19.5709 223.741 21.3478L221.986 22.194C221.457 21.0094 220.293 20.1844 218.855 20.1844C216.761 20.1844 215.174 21.8978 215.174 24.2459C215.174 26.5517 216.761 28.2864 218.855 28.2864C220.315 28.2864 221.436 27.4825 221.986 26.2344L223.741 27.1229C223.022 28.8787 221.097 30.1903 218.855 30.1903ZM225.678 29.9364V13.9227H227.645V19.867C228.322 18.8516 229.486 18.2805 230.861 18.2805C233.293 18.2805 235.134 20.0997 235.134 22.5536V29.9364H233.145V23.1882C233.145 21.3055 232.003 20.1844 230.416 20.1844C228.83 20.1844 227.645 21.3267 227.645 23.1882V29.9364H225.678Z" fill="#CBCACF"/>
</svg>
